<?xml version="1.0" encoding="utf-8" standalone="no"?>
<!DOCTYPE svg PUBLIC "-//W3C//DTD SVG 1.1//EN"
  "http://www.w3.org/Graphics/SVG/1.1/DTD/svg11.dtd">
<svg xmlns:xlink="http://www.w3.org/1999/xlink" width="1349.363645pt" height="361.18051pt" viewBox="0 0 1349.363645 361.18051" xmlns="http://www.w3.org/2000/svg" version="1.1">
 <metadata>
  <rdf:RDF xmlns:dc="http://purl.org/dc/elements/1.1/" xmlns:cc="http://creativecommons.org/ns#" xmlns:rdf="http://www.w3.org/1999/02/22-rdf-syntax-ns#">
   <cc:Work>
    <dc:type rdf:resource="http://purl.org/dc/dcmitype/StillImage"/>
    <dc:date>2025-12-23T20:37:38.671197</dc:date>
    <dc:format>image/svg+xml</dc:format>
    <dc:creator>
     <cc:Agent>
      <dc:title>Matplotlib v3.10.8, https://matplotlib.org/</dc:title>
     </cc:Agent>
    </dc:creator>
   </cc:Work>
  </rdf:RDF>
 </metadata>
 <defs>
  <style type="text/css">*{stroke-linejoin: round; stroke-linecap: butt}</style>
 </defs>
 <g id="figure_1">
  <g id="patch_1">
   <path d="M 0 361.18051 
L 1349.363645 361.18051 
L 1349.363645 0 
L 0 0 
z
" style="fill: #ffffff"/>
  </g>
  <g id="axes_1">
   <g id="patch_2">
    <path d="M 47.13018 232.903333 
L 144.737287 232.903333 
L 144.737287 143.385028 
L 47.13018 143.385028 
z
" clip-path="url(#p1eeae9008d)" style="fill: #d9d9d9; stroke: #666666; stroke-linejoin: miter"/>
   </g>
   <g id="patch_3">
    <path d="M 215.724273 243.075868 
L 304.458007 243.075868 
L 304.458007 161.69559 
L 215.724273 161.69559 
z
" clip-path="url(#p1eeae9008d)" style="fill: #bfbfbf; stroke: #666666; stroke-linejoin: miter"/>
   </g>
   <g id="patch_4">
    <path d="M 222.822972 239.006854 
L 311.556705 239.006854 
L 311.556705 157.626576 
L 222.822972 157.626576 
z
" clip-path="url(#p1eeae9008d)" style="fill: #bfbfbf; stroke: #666666; stroke-linejoin: miter"/>
   </g>
   <g id="patch_5">
    <path d="M 229.921671 234.93784 
L 318.655404 234.93784 
L 318.655404 153.557562 
L 229.921671 153.557562 
z
" clip-path="url(#p1eeae9008d)" style="fill: #bfbfbf; stroke: #666666; stroke-linejoin: miter"/>
   </g>
   <g id="patch_6">
    <path d="M 237.020369 230.868826 
L 325.754103 230.868826 
L 325.754103 149.488549 
L 237.020369 149.488549 
z
" clip-path="url(#p1eeae9008d)" style="fill: #bfbfbf; stroke: #666666; stroke-linejoin: miter"/>
   </g>
   <g id="patch_7">
    <path d="M 244.119068 226.799812 
L 332.852801 226.799812 
L 332.852801 145.419535 
L 244.119068 145.419535 
z
" clip-path="url(#p1eeae9008d)" style="fill: #bfbfbf; stroke: #666666; stroke-linejoin: miter"/>
   </g>
   <g id="patch_8">
    <path d="M 251.217767 222.730799 
L 339.9515 222.730799 
L 339.9515 141.350521 
L 251.217767 141.350521 
z
" clip-path="url(#p1eeae9008d)" style="fill: #bfbfbf; stroke: #666666; stroke-linejoin: miter"/>
   </g>
   <g id="patch_9">
    <path d="M 397.628427 228.834319 
L 468.615413 228.834319 
L 468.615413 163.730097 
L 397.628427 163.730097 
z
" clip-path="url(#p1eeae9008d)" style="fill: #c9c9c9; stroke: #666666; stroke-linejoin: miter"/>
   </g>
   <g id="patch_10">
    <path d="M 403.839788 225.172207 
L 474.826775 225.172207 
L 474.826775 160.067985 
L 403.839788 160.067985 
z
" clip-path="url(#p1eeae9008d)" style="fill: #c9c9c9; stroke: #666666; stroke-linejoin: miter"/>
   </g>
   <g id="patch_11">
    <path d="M 410.051149 221.510094 
L 481.038136 221.510094 
L 481.038136 156.405872 
L 410.051149 156.405872 
z
" clip-path="url(#p1eeae9008d)" style="fill: #c9c9c9; stroke: #666666; stroke-linejoin: miter"/>
   </g>
   <g id="patch_12">
    <path d="M 416.262511 217.847982 
L 487.249497 217.847982 
L 487.249497 152.74376 
L 416.262511 152.74376 
z
" clip-path="url(#p1eeae9008d)" style="fill: #c9c9c9; stroke: #666666; stroke-linejoin: miter"/>
   </g>
   <g id="patch_13">
    <path d="M 422.473872 214.185869 
L 493.460859 214.185869 
L 493.460859 149.081647 
L 422.473872 149.081647 
z
" clip-path="url(#p1eeae9008d)" style="fill: #c9c9c9; stroke: #666666; stroke-linejoin: miter"/>
   </g>
   <g id="patch_14">
    <path d="M 428.685233 210.523757 
L 499.67222 210.523757 
L 499.67222 145.419535 
L 428.685233 145.419535 
z
" clip-path="url(#p1eeae9008d)" style="fill: #c9c9c9; stroke: #666666; stroke-linejoin: miter"/>
   </g>
   <g id="patch_15">
    <path d="M 570.659207 236.972347 
L 646.08288 236.972347 
L 646.08288 167.799111 
L 570.659207 167.799111 
z
" clip-path="url(#p1eeae9008d)" style="fill: #bdbdbd; stroke: #666666; stroke-linejoin: miter"/>
   </g>
   <g id="patch_16">
    <path d="M 574.208556 234.73439 
L 649.632229 234.73439 
L 649.632229 165.561153 
L 574.208556 165.561153 
z
" clip-path="url(#p1eeae9008d)" style="fill: #bdbdbd; stroke: #666666; stroke-linejoin: miter"/>
   </g>
   <g id="patch_17">
    <path d="M 577.757905 232.496432 
L 653.181579 232.496432 
L 653.181579 163.323196 
L 577.757905 163.323196 
z
" clip-path="url(#p1eeae9008d)" style="fill: #bdbdbd; stroke: #666666; stroke-linejoin: miter"/>
   </g>
   <g id="patch_18">
    <path d="M 581.307255 230.258474 
L 656.730928 230.258474 
L 656.730928 161.085238 
L 581.307255 161.085238 
z
" clip-path="url(#p1eeae9008d)" style="fill: #bdbdbd; stroke: #666666; stroke-linejoin: miter"/>
   </g>
   <g id="patch_19">
    <path d="M 584.856604 228.020517 
L 660.280277 228.020517 
L 660.280277 158.847281 
L 584.856604 158.847281 
z
" clip-path="url(#p1eeae9008d)" style="fill: #bdbdbd; stroke: #666666; stroke-linejoin: miter"/>
   </g>
   <g id="patch_20">
    <path d="M 588.405953 225.782559 
L 663.829627 225.782559 
L 663.829627 156.609323 
L 588.405953 156.609323 
z
" clip-path="url(#p1eeae9008d)" style="fill: #bdbdbd; stroke: #666666; stroke-linejoin: miter"/>
   </g>
   <g id="patch_21">
    <path d="M 591.955303 223.544601 
L 667.378976 223.544601 
L 667.378976 154.371365 
L 591.955303 154.371365 
z
" clip-path="url(#p1eeae9008d)" style="fill: #bdbdbd; stroke: #666666; stroke-linejoin: miter"/>
   </g>
   <g id="patch_22">
    <path d="M 595.504652 221.306644 
L 670.928325 221.306644 
L 670.928325 152.133408 
L 595.504652 152.133408 
z
" clip-path="url(#p1eeae9008d)" style="fill: #bdbdbd; stroke: #666666; stroke-linejoin: miter"/>
   </g>
   <g id="patch_23">
    <path d="M 599.054001 219.068686 
L 674.477675 219.068686 
L 674.477675 149.89545 
L 599.054001 149.89545 
z
" clip-path="url(#p1eeae9008d)" style="fill: #bdbdbd; stroke: #666666; stroke-linejoin: miter"/>
   </g>
   <g id="patch_24">
    <path d="M 602.603351 216.830728 
L 678.027024 216.830728 
L 678.027024 147.657492 
L 602.603351 147.657492 
z
" clip-path="url(#p1eeae9008d)" style="fill: #bdbdbd; stroke: #666666; stroke-linejoin: miter"/>
   </g>
   <g id="patch_25">
    <path d="M 606.1527 214.592771 
L 681.576373 214.592771 
L 681.576373 145.419535 
L 606.1527 145.419535 
z
" clip-path="url(#p1eeae9008d)" style="fill: #bdbdbd; stroke: #666666; stroke-linejoin: miter"/>
   </g>
   <g id="patch_26">
    <path d="M 609.702049 212.354813 
L 685.125723 212.354813 
L 685.125723 143.181577 
L 609.702049 143.181577 
z
" clip-path="url(#p1eeae9008d)" style="fill: #bdbdbd; stroke: #666666; stroke-linejoin: miter"/>
   </g>
   <g id="patch_27">
    <path d="M 613.251399 210.116856 
L 688.675072 210.116856 
L 688.675072 140.943619 
L 613.251399 140.943619 
z
" clip-path="url(#p1eeae9008d)" style="fill: #bdbdbd; stroke: #666666; stroke-linejoin: miter"/>
   </g>
   <g id="patch_28">
    <path d="M 616.800748 207.878898 
L 692.224421 207.878898 
L 692.224421 138.705662 
L 616.800748 138.705662 
z
" clip-path="url(#p1eeae9008d)" style="fill: #bdbdbd; stroke: #666666; stroke-linejoin: miter"/>
   </g>
   <g id="patch_29">
    <path d="M 620.350097 205.64094 
L 695.773771 205.64094 
L 695.773771 136.467704 
L 620.350097 136.467704 
z
" clip-path="url(#p1eeae9008d)" style="fill: #bdbdbd; stroke: #666666; stroke-linejoin: miter"/>
   </g>
   <g id="patch_30">
    <path d="M 623.899447 203.402983 
L 699.32312 203.402983 
L 699.32312 134.229747 
L 623.899447 134.229747 
z
" clip-path="url(#p1eeae9008d)" style="fill: #bdbdbd; stroke: #666666; stroke-linejoin: miter"/>
   </g>
   <g id="patch_31">
    <path d="M 761.436733 222.730799 
L 819.11366 222.730799 
L 819.11366 169.833618 
L 761.436733 169.833618 
z
" clip-path="url(#p1eeae9008d)" style="fill: #c7c7c7; stroke: #666666; stroke-linejoin: miter"/>
   </g>
   <g id="patch_32">
    <path d="M 764.32058 220.899742 
L 821.997506 220.899742 
L 821.997506 168.002562 
L 764.32058 168.002562 
z
" clip-path="url(#p1eeae9008d)" style="fill: #c7c7c7; stroke: #666666; stroke-linejoin: miter"/>
   </g>
   <g id="patch_33">
    <path d="M 767.204426 219.068686 
L 824.881353 219.068686 
L 824.881353 166.171506 
L 767.204426 166.171506 
z
" clip-path="url(#p1eeae9008d)" style="fill: #c7c7c7; stroke: #666666; stroke-linejoin: miter"/>
   </g>
   <g id="patch_34">
    <path d="M 770.088272 217.23763 
L 827.765199 217.23763 
L 827.765199 164.340449 
L 770.088272 164.340449 
z
" clip-path="url(#p1eeae9008d)" style="fill: #c7c7c7; stroke: #666666; stroke-linejoin: miter"/>
   </g>
   <g id="patch_35">
    <path d="M 772.972119 215.406574 
L 830.649045 215.406574 
L 830.649045 162.509393 
L 772.972119 162.509393 
z
" clip-path="url(#p1eeae9008d)" style="fill: #c7c7c7; stroke: #666666; stroke-linejoin: miter"/>
   </g>
   <g id="patch_36">
    <path d="M 775.855965 213.575517 
L 833.532892 213.575517 
L 833.532892 160.678337 
L 775.855965 160.678337 
z
" clip-path="url(#p1eeae9008d)" style="fill: #c7c7c7; stroke: #666666; stroke-linejoin: miter"/>
   </g>
   <g id="patch_37">
    <path d="M 778.739811 211.744461 
L 836.416738 211.744461 
L 836.416738 158.847281 
L 778.739811 158.847281 
z
" clip-path="url(#p1eeae9008d)" style="fill: #c7c7c7; stroke: #666666; stroke-linejoin: miter"/>
   </g>
   <g id="patch_38">
    <path d="M 781.623658 209.913405 
L 839.300584 209.913405 
L 839.300584 157.016224 
L 781.623658 157.016224 
z
" clip-path="url(#p1eeae9008d)" style="fill: #c7c7c7; stroke: #666666; stroke-linejoin: miter"/>
   </g>
   <g id="patch_39">
    <path d="M 784.507504 208.082349 
L 842.184431 208.082349 
L 842.184431 155.185168 
L 784.507504 155.185168 
z
" clip-path="url(#p1eeae9008d)" style="fill: #c7c7c7; stroke: #666666; stroke-linejoin: miter"/>
   </g>
   <g id="patch_40">
    <path d="M 787.39135 206.251292 
L 845.068277 206.251292 
L 845.068277 153.354112 
L 787.39135 153.354112 
z
" clip-path="url(#p1eeae9008d)" style="fill: #c7c7c7; stroke: #666666; stroke-linejoin: miter"/>
   </g>
   <g id="patch_41">
    <path d="M 790.275197 204.420236 
L 847.952123 204.420236 
L 847.952123 151.523056 
L 790.275197 151.523056 
z
" clip-path="url(#p1eeae9008d)" style="fill: #c7c7c7; stroke: #666666; stroke-linejoin: miter"/>
   </g>
   <g id="patch_42">
    <path d="M 793.159043 202.58918 
L 850.83597 202.58918 
L 850.83597 149.691999 
L 793.159043 149.691999 
z
" clip-path="url(#p1eeae9008d)" style="fill: #c7c7c7; stroke: #666666; stroke-linejoin: miter"/>
   </g>
   <g id="patch_43">
    <path d="M 796.042889 200.758124 
L 853.719816 200.758124 
L 853.719816 147.860943 
L 796.042889 147.860943 
z
" clip-path="url(#p1eeae9008d)" style="fill: #c7c7c7; stroke: #666666; stroke-linejoin: miter"/>
   </g>
   <g id="patch_44">
    <path d="M 798.926736 198.927067 
L 856.603662 198.927067 
L 856.603662 146.029887 
L 798.926736 146.029887 
z
" clip-path="url(#p1eeae9008d)" style="fill: #c7c7c7; stroke: #666666; stroke-linejoin: miter"/>
   </g>
   <g id="patch_45">
    <path d="M 801.810582 197.096011 
L 859.487509 197.096011 
L 859.487509 144.198831 
L 801.810582 144.198831 
z
" clip-path="url(#p1eeae9008d)" style="fill: #c7c7c7; stroke: #666666; stroke-linejoin: miter"/>
   </g>
   <g id="patch_46">
    <path d="M 804.694428 195.264955 
L 862.371355 195.264955 
L 862.371355 142.367774 
L 804.694428 142.367774 
z
" clip-path="url(#p1eeae9008d)" style="fill: #c7c7c7; stroke: #666666; stroke-linejoin: miter"/>
   </g>
   <g id="patch_47">
    <path d="M 921.157453 216.627278 
L 974.397693 216.627278 
L 974.397693 194.247701 
L 921.157453 194.247701 
z
" clip-path="url(#p1eeae9008d)" style="fill: #b3b3b3; stroke: #666666; stroke-linejoin: miter"/>
   </g>
   <g id="patch_48">
    <path d="M 1076.441487 216.627278 
L 1129.681727 216.627278 
L 1129.681727 194.247701 
L 1076.441487 194.247701 
z
" clip-path="url(#p1eeae9008d)" style="fill: #ffffff; stroke: #666666; stroke-linejoin: miter"/>
   </g>
   <g id="patch_49">
    <path d="M 1231.72552 216.627278 
L 1284.96576 216.627278 
L 1284.96576 194.247701 
L 1231.72552 194.247701 
z
" clip-path="url(#p1eeae9008d)" style="fill: #b3b3b3; stroke: #666666; stroke-linejoin: miter"/>
   </g>
   <g id="patch_50">
    <path d="M 146.735745 188.029628 
Q 197.977149 185.092442 247.20939 182.270422 
" clip-path="url(#p1eeae9008d)" style="fill: none; stroke: #000000; stroke-width: 1.8; stroke-linecap: round"/>
    <path d="M 241.458333 179.79548 
L 247.20939 182.270422 
L 241.778802 185.386303 
z
" clip-path="url(#p1eeae9008d)" style="stroke: #000000; stroke-width: 1.8; stroke-linecap: round"/>
   </g>
   <g id="patch_51">
    <path d="M 341.947251 181.949142 
Q 384.316987 180.006216 424.676375 178.155478 
" clip-path="url(#p1eeae9008d)" style="fill: none; stroke: #000000; stroke-width: 1.8; stroke-linecap: round"/>
    <path d="M 418.95399 175.614944 
L 424.676375 178.155478 
L 419.210517 181.209065 
z
" clip-path="url(#p1eeae9008d)" style="stroke: #000000; stroke-width: 1.8; stroke-linecap: round"/>
   </g>
   <g id="patch_52">
    <path d="M 501.670137 177.824404 
Q 561.786979 173.393921 619.896802 169.111351 
" clip-path="url(#p1eeae9008d)" style="fill: none; stroke: #000000; stroke-width: 1.8; stroke-linecap: round"/>
    <path d="M 614.106153 166.730516 
L 619.896802 169.111351 
L 614.517744 172.31537 
z
" clip-path="url(#p1eeae9008d)" style="stroke: #000000; stroke-width: 1.8; stroke-linecap: round"/>
   </g>
   <g id="patch_53">
    <path d="M 701.320056 168.816365 
Q 752.008768 168.816365 800.68502 168.816365 
" clip-path="url(#p1eeae9008d)" style="fill: none; stroke: #000000; stroke-width: 1.8; stroke-linecap: round"/>
    <path d="M 795.08502 166.016365 
L 800.68502 168.816365 
L 795.08502 171.616365 
z
" clip-path="url(#p1eeae9008d)" style="stroke: #000000; stroke-width: 1.8; stroke-linecap: round"/>
   </g>
   <g id="patch_54">
    <path d="M 864.068488 169.873603 
Q 891.764511 187.126994 917.752403 203.316294 
" clip-path="url(#p1eeae9008d)" style="fill: none; stroke: #000000; stroke-width: 1.8; stroke-linecap: round"/>
    <path d="M 914.479751 197.978715 
L 917.752403 203.316294 
L 911.518748 202.731868 
z
" clip-path="url(#p1eeae9008d)" style="stroke: #000000; stroke-width: 1.8; stroke-linecap: round"/>
   </g>
   <g id="patch_55">
    <path d="M 976.400079 205.43749 
Q 1025.420918 205.43749 1072.429296 205.43749 
" clip-path="url(#p1eeae9008d)" style="fill: none; stroke: #000000; stroke-width: 1.8; stroke-linecap: round"/>
    <path d="M 1066.829296 202.63749 
L 1072.429296 205.43749 
L 1066.829296 208.23749 
z
" clip-path="url(#p1eeae9008d)" style="stroke: #000000; stroke-width: 1.8; stroke-linecap: round"/>
   </g>
   <g id="patch_56">
    <path d="M 1131.684112 205.43749 
Q 1180.704951 205.43749 1227.71333 205.43749 
" clip-path="url(#p1eeae9008d)" style="fill: none; stroke: #000000; stroke-width: 1.8; stroke-linecap: round"/>
    <path d="M 1222.11333 202.63749 
L 1227.71333 205.43749 
L 1222.11333 208.23749 
z
" clip-path="url(#p1eeae9008d)" style="stroke: #000000; stroke-width: 1.8; stroke-linecap: round"/>
   </g>
   <g id="line2d_1">
    <path d="M 76.412312 214.999672 
L 100.814089 156.812774 
" clip-path="url(#p1eeae9008d)" style="fill: none; stroke: #000000; stroke-width: 5; stroke-linecap: round"/>
   </g>
   <g id="line2d_2">
    <path d="M 100.814089 156.812774 
L 125.215865 214.999672 
" clip-path="url(#p1eeae9008d)" style="fill: none; stroke: #000000; stroke-width: 5; stroke-linecap: round"/>
   </g>
   <g id="line2d_3">
    <path d="M 86.173023 186.353814 
L 117.407297 186.353814 
" clip-path="url(#p1eeae9008d)" style="fill: none; stroke: #000000; stroke-width: 5; stroke-linecap: round"/>
   </g>
   <g id="line2d_4">
    <path d="M 197.977527 281.7315 
L 197.977527 269.524458 
" clip-path="url(#p1eeae9008d)" style="fill: none; stroke: #000000; stroke-width: 1.6; stroke-linecap: square"/>
   </g>
   <g id="line2d_5">
    <path d="M 384.318367 281.7315 
L 384.318367 269.524458 
" clip-path="url(#p1eeae9008d)" style="fill: none; stroke: #000000; stroke-width: 1.6; stroke-linecap: square"/>
   </g>
   <g id="line2d_6">
    <path d="M 561.785833 281.7315 
L 561.785833 269.524458 
" clip-path="url(#p1eeae9008d)" style="fill: none; stroke: #000000; stroke-width: 1.6; stroke-linecap: square"/>
   </g>
   <g id="line2d_7">
    <path d="M 752.008774 281.7315 
L 752.008774 269.524458 
" clip-path="url(#p1eeae9008d)" style="fill: none; stroke: #000000; stroke-width: 1.6; stroke-linecap: square"/>
   </g>
   <g id="line2d_8">
    <path d="M 891.764404 281.7315 
L 891.764404 269.524458 
" clip-path="url(#p1eeae9008d)" style="fill: none; stroke: #000000; stroke-width: 1.6; stroke-linecap: square"/>
   </g>
   <g id="line2d_9">
    <path d="M 1025.41959 281.7315 
L 1025.41959 269.524458 
" clip-path="url(#p1eeae9008d)" style="fill: none; stroke: #000000; stroke-width: 1.6; stroke-linecap: square"/>
   </g>
   <g id="line2d_10">
    <path d="M 1180.703623 281.7315 
L 1180.703623 269.524458 
" clip-path="url(#p1eeae9008d)" style="fill: none; stroke: #000000; stroke-width: 1.6; stroke-linecap: square"/>
   </g>
   <g id="text_1">
    <!-- INPUT -->
    <g transform="translate(54.714671 26.695) scale(0.28 -0.28)">
     <defs>
      <path id="TimesNewRomanPSMT-49" d="M 1975 116 
L 1975 0 
L 159 0 
L 159 116 
L 309 116 
Q 572 116 691 269 
Q 766 369 766 750 
L 766 3488 
Q 766 3809 725 3913 
Q 694 3991 597 4047 
Q 459 4122 309 4122 
L 159 4122 
L 159 4238 
L 1975 4238 
L 1975 4122 
L 1822 4122 
Q 1563 4122 1444 3969 
Q 1366 3869 1366 3488 
L 1366 750 
Q 1366 428 1406 325 
Q 1438 247 1538 191 
Q 1672 116 1822 116 
L 1975 116 
z
" transform="scale(0.015625)"/>
      <path id="TimesNewRomanPSMT-4e" d="M -84 4238 
L 1066 4238 
L 3656 1059 
L 3656 3503 
Q 3656 3894 3569 3991 
Q 3453 4122 3203 4122 
L 3056 4122 
L 3056 4238 
L 4531 4238 
L 4531 4122 
L 4381 4122 
Q 4113 4122 4000 3959 
Q 3931 3859 3931 3503 
L 3931 -69 
L 3819 -69 
L 1025 3344 
L 1025 734 
Q 1025 344 1109 247 
Q 1228 116 1475 116 
L 1625 116 
L 1625 0 
L 150 0 
L 150 116 
L 297 116 
Q 569 116 681 278 
Q 750 378 750 734 
L 750 3681 
Q 566 3897 470 3965 
Q 375 4034 191 4094 
Q 100 4122 -84 4122 
L -84 4238 
z
" transform="scale(0.015625)"/>
      <path id="TimesNewRomanPSMT-50" d="M 1313 1984 
L 1313 750 
Q 1313 350 1400 253 
Q 1519 116 1759 116 
L 1922 116 
L 1922 0 
L 106 0 
L 106 116 
L 266 116 
Q 534 116 650 291 
Q 713 388 713 750 
L 713 3488 
Q 713 3888 628 3984 
Q 506 4122 266 4122 
L 106 4122 
L 106 4238 
L 1659 4238 
Q 2228 4238 2556 4120 
Q 2884 4003 3109 3725 
Q 3334 3447 3334 3066 
Q 3334 2547 2992 2222 
Q 2650 1897 2025 1897 
Q 1872 1897 1694 1919 
Q 1516 1941 1313 1984 
z
M 1313 2163 
Q 1478 2131 1606 2115 
Q 1734 2100 1825 2100 
Q 2150 2100 2386 2351 
Q 2622 2603 2622 3003 
Q 2622 3278 2509 3514 
Q 2397 3750 2190 3867 
Q 1984 3984 1722 3984 
Q 1563 3984 1313 3925 
L 1313 2163 
z
" transform="scale(0.015625)"/>
      <path id="TimesNewRomanPSMT-55" d="M 3053 4122 
L 3053 4238 
L 4553 4238 
L 4553 4122 
L 4394 4122 
Q 4144 4122 4009 3913 
Q 3944 3816 3944 3463 
L 3944 1744 
Q 3944 1106 3817 754 
Q 3691 403 3320 151 
Q 2950 -100 2313 -100 
Q 1619 -100 1259 140 
Q 900 381 750 788 
Q 650 1066 650 1831 
L 650 3488 
Q 650 3878 542 4000 
Q 434 4122 194 4122 
L 34 4122 
L 34 4238 
L 1866 4238 
L 1866 4122 
L 1703 4122 
Q 1441 4122 1328 3956 
Q 1250 3844 1250 3488 
L 1250 1641 
Q 1250 1394 1295 1075 
Q 1341 756 1459 578 
Q 1578 400 1801 284 
Q 2025 169 2350 169 
Q 2766 169 3094 350 
Q 3422 531 3542 814 
Q 3663 1097 3663 1772 
L 3663 3488 
Q 3663 3884 3575 3984 
Q 3453 4122 3213 4122 
L 3053 4122 
z
" transform="scale(0.015625)"/>
      <path id="TimesNewRomanPSMT-54" d="M 3703 4238 
L 3750 3244 
L 3631 3244 
Q 3597 3506 3538 3619 
Q 3441 3800 3280 3886 
Q 3119 3972 2856 3972 
L 2259 3972 
L 2259 734 
Q 2259 344 2344 247 
Q 2463 116 2709 116 
L 2856 116 
L 2856 0 
L 1059 0 
L 1059 116 
L 1209 116 
Q 1478 116 1591 278 
Q 1659 378 1659 734 
L 1659 3972 
L 1150 3972 
Q 853 3972 728 3928 
Q 566 3869 450 3700 
Q 334 3531 313 3244 
L 194 3244 
L 244 4238 
L 3703 4238 
z
" transform="scale(0.015625)"/>
     </defs>
     <use xlink:href="#TimesNewRomanPSMT-49"/>
     <use xlink:href="#TimesNewRomanPSMT-4e" transform="translate(33.300781 0)"/>
     <use xlink:href="#TimesNewRomanPSMT-50" transform="translate(105.517578 0)"/>
     <use xlink:href="#TimesNewRomanPSMT-55" transform="translate(161.132812 0)"/>
     <use xlink:href="#TimesNewRomanPSMT-54" transform="translate(233.349609 0)"/>
    </g>
    <!-- 32×32 -->
    <g transform="translate(60.039046 56.015375) scale(0.28 -0.28)">
     <defs>
      <path id="TimesNewRomanPSMT-33" d="M 325 3431 
Q 506 3859 782 4092 
Q 1059 4325 1472 4325 
Q 1981 4325 2253 3994 
Q 2459 3747 2459 3466 
Q 2459 3003 1878 2509 
Q 2269 2356 2469 2072 
Q 2669 1788 2669 1403 
Q 2669 853 2319 450 
Q 1863 -75 997 -75 
Q 569 -75 414 31 
Q 259 138 259 259 
Q 259 350 332 419 
Q 406 488 509 488 
Q 588 488 669 463 
Q 722 447 909 348 
Q 1097 250 1169 231 
Q 1284 197 1416 197 
Q 1734 197 1970 444 
Q 2206 691 2206 1028 
Q 2206 1275 2097 1509 
Q 2016 1684 1919 1775 
Q 1784 1900 1550 2001 
Q 1316 2103 1072 2103 
L 972 2103 
L 972 2197 
Q 1219 2228 1467 2375 
Q 1716 2522 1828 2728 
Q 1941 2934 1941 3181 
Q 1941 3503 1739 3701 
Q 1538 3900 1238 3900 
Q 753 3900 428 3381 
L 325 3431 
z
" transform="scale(0.015625)"/>
      <path id="TimesNewRomanPSMT-32" d="M 2934 816 
L 2638 0 
L 138 0 
L 138 116 
Q 1241 1122 1691 1759 
Q 2141 2397 2141 2925 
Q 2141 3328 1894 3587 
Q 1647 3847 1303 3847 
Q 991 3847 742 3664 
Q 494 3481 375 3128 
L 259 3128 
Q 338 3706 661 4015 
Q 984 4325 1469 4325 
Q 1984 4325 2329 3994 
Q 2675 3663 2675 3213 
Q 2675 2891 2525 2569 
Q 2294 2063 1775 1497 
Q 997 647 803 472 
L 1909 472 
Q 2247 472 2383 497 
Q 2519 522 2628 598 
Q 2738 675 2819 816 
L 2934 816 
z
" transform="scale(0.015625)"/>
      <path id="TimesNewRomanPSMT-d7" d="M 516 1025 
L 1619 2128 
L 519 3228 
L 700 3409 
L 1800 2309 
L 2900 3409 
L 3075 3231 
L 1975 2131 
L 3081 1025 
L 2903 844 
L 1797 1950 
L 694 847 
L 516 1025 
z
" transform="scale(0.015625)"/>
     </defs>
     <use xlink:href="#TimesNewRomanPSMT-33"/>
     <use xlink:href="#TimesNewRomanPSMT-32" transform="translate(50 0)"/>
     <use xlink:href="#TimesNewRomanPSMT-d7" transform="translate(100 0)"/>
     <use xlink:href="#TimesNewRomanPSMT-33" transform="translate(156.396484 0)"/>
     <use xlink:href="#TimesNewRomanPSMT-32" transform="translate(206.396484 0)"/>
    </g>
   </g>
   <g id="text_2">
    <!-- C1: feature maps -->
    <g transform="translate(164.45364 26.6425) scale(0.28 -0.28)">
     <defs>
      <path id="TimesNewRomanPSMT-43" d="M 3853 4334 
L 3950 2894 
L 3853 2894 
Q 3659 3541 3300 3825 
Q 2941 4109 2438 4109 
Q 2016 4109 1675 3895 
Q 1334 3681 1139 3212 
Q 944 2744 944 2047 
Q 944 1472 1128 1050 
Q 1313 628 1683 403 
Q 2053 178 2528 178 
Q 2941 178 3256 354 
Q 3572 531 3950 1056 
L 4047 994 
Q 3728 428 3303 165 
Q 2878 -97 2294 -97 
Q 1241 -97 663 684 
Q 231 1266 231 2053 
Q 231 2688 515 3219 
Q 800 3750 1298 4042 
Q 1797 4334 2388 4334 
Q 2847 4334 3294 4109 
Q 3425 4041 3481 4041 
Q 3566 4041 3628 4100 
Q 3709 4184 3744 4334 
L 3853 4334 
z
" transform="scale(0.015625)"/>
      <path id="TimesNewRomanPSMT-31" d="M 750 3822 
L 1781 4325 
L 1884 4325 
L 1884 747 
Q 1884 391 1914 303 
Q 1944 216 2037 169 
Q 2131 122 2419 116 
L 2419 0 
L 825 0 
L 825 116 
Q 1125 122 1212 167 
Q 1300 213 1334 289 
Q 1369 366 1369 747 
L 1369 3034 
Q 1369 3497 1338 3628 
Q 1316 3728 1258 3775 
Q 1200 3822 1119 3822 
Q 1003 3822 797 3725 
L 750 3822 
z
" transform="scale(0.015625)"/>
      <path id="TimesNewRomanPSMT-3a" d="M 903 2950 
Q 1047 2950 1148 2848 
Q 1250 2747 1250 2603 
Q 1250 2459 1148 2357 
Q 1047 2256 903 2256 
Q 759 2256 657 2357 
Q 556 2459 556 2603 
Q 556 2747 657 2848 
Q 759 2950 903 2950 
z
M 897 609 
Q 1044 609 1145 506 
Q 1247 403 1247 259 
Q 1247 116 1144 14 
Q 1041 -88 897 -88 
Q 753 -88 651 14 
Q 550 116 550 259 
Q 550 403 651 506 
Q 753 609 897 609 
z
" transform="scale(0.015625)"/>
      <path id="TimesNewRomanPSMT-20" transform="scale(0.015625)"/>
      <path id="TimesNewRomanPSMT-66" d="M 1319 2638 
L 1319 756 
Q 1319 356 1406 250 
Q 1522 113 1716 113 
L 1975 113 
L 1975 0 
L 266 0 
L 266 113 
L 394 113 
Q 519 113 622 175 
Q 725 238 764 344 
Q 803 450 803 756 
L 803 2638 
L 247 2638 
L 247 2863 
L 803 2863 
L 803 3050 
Q 803 3478 940 3775 
Q 1078 4072 1361 4255 
Q 1644 4438 1997 4438 
Q 2325 4438 2600 4225 
Q 2781 4084 2781 3909 
Q 2781 3816 2700 3733 
Q 2619 3650 2525 3650 
Q 2453 3650 2373 3701 
Q 2294 3753 2178 3923 
Q 2063 4094 1966 4153 
Q 1869 4213 1750 4213 
Q 1606 4213 1506 4136 
Q 1406 4059 1362 3898 
Q 1319 3738 1319 3069 
L 1319 2863 
L 2056 2863 
L 2056 2638 
L 1319 2638 
z
" transform="scale(0.015625)"/>
      <path id="TimesNewRomanPSMT-65" d="M 681 1784 
Q 678 1147 991 784 
Q 1303 422 1725 422 
Q 2006 422 2214 576 
Q 2422 731 2563 1106 
L 2659 1044 
Q 2594 616 2278 264 
Q 1963 -88 1488 -88 
Q 972 -88 605 314 
Q 238 716 238 1394 
Q 238 2128 614 2539 
Q 991 2950 1559 2950 
Q 2041 2950 2350 2633 
Q 2659 2316 2659 1784 
L 681 1784 
z
M 681 1966 
L 2006 1966 
Q 1991 2241 1941 2353 
Q 1863 2528 1708 2628 
Q 1553 2728 1384 2728 
Q 1125 2728 920 2526 
Q 716 2325 681 1966 
z
" transform="scale(0.015625)"/>
      <path id="TimesNewRomanPSMT-61" d="M 1822 413 
Q 1381 72 1269 19 
Q 1100 -59 909 -59 
Q 613 -59 420 144 
Q 228 347 228 678 
Q 228 888 322 1041 
Q 450 1253 767 1440 
Q 1084 1628 1822 1897 
L 1822 2009 
Q 1822 2438 1686 2597 
Q 1550 2756 1291 2756 
Q 1094 2756 978 2650 
Q 859 2544 859 2406 
L 866 2225 
Q 866 2081 792 2003 
Q 719 1925 600 1925 
Q 484 1925 411 2006 
Q 338 2088 338 2228 
Q 338 2497 613 2722 
Q 888 2947 1384 2947 
Q 1766 2947 2009 2819 
Q 2194 2722 2281 2516 
Q 2338 2381 2338 1966 
L 2338 994 
Q 2338 584 2353 492 
Q 2369 400 2405 369 
Q 2441 338 2488 338 
Q 2538 338 2575 359 
Q 2641 400 2828 588 
L 2828 413 
Q 2478 -56 2159 -56 
Q 2006 -56 1915 50 
Q 1825 156 1822 413 
z
M 1822 616 
L 1822 1706 
Q 1350 1519 1213 1441 
Q 966 1303 859 1153 
Q 753 1003 753 825 
Q 753 600 887 451 
Q 1022 303 1197 303 
Q 1434 303 1822 616 
z
" transform="scale(0.015625)"/>
      <path id="TimesNewRomanPSMT-74" d="M 1031 3803 
L 1031 2863 
L 1700 2863 
L 1700 2644 
L 1031 2644 
L 1031 788 
Q 1031 509 1111 412 
Q 1191 316 1316 316 
Q 1419 316 1516 380 
Q 1613 444 1666 569 
L 1788 569 
Q 1678 263 1478 108 
Q 1278 -47 1066 -47 
Q 922 -47 784 33 
Q 647 113 581 261 
Q 516 409 516 719 
L 516 2644 
L 63 2644 
L 63 2747 
Q 234 2816 414 2980 
Q 594 3144 734 3369 
Q 806 3488 934 3803 
L 1031 3803 
z
" transform="scale(0.015625)"/>
      <path id="TimesNewRomanPSMT-75" d="M 2709 2863 
L 2709 1128 
Q 2709 631 2732 520 
Q 2756 409 2807 365 
Q 2859 322 2928 322 
Q 3025 322 3147 375 
L 3191 266 
L 2334 -88 
L 2194 -88 
L 2194 519 
Q 1825 119 1631 15 
Q 1438 -88 1222 -88 
Q 981 -88 804 51 
Q 628 191 559 409 
Q 491 628 491 1028 
L 491 2306 
Q 491 2509 447 2587 
Q 403 2666 317 2708 
Q 231 2750 6 2747 
L 6 2863 
L 1009 2863 
L 1009 947 
Q 1009 547 1148 422 
Q 1288 297 1484 297 
Q 1619 297 1789 381 
Q 1959 466 2194 703 
L 2194 2325 
Q 2194 2569 2105 2655 
Q 2016 2741 1734 2747 
L 1734 2863 
L 2709 2863 
z
" transform="scale(0.015625)"/>
      <path id="TimesNewRomanPSMT-72" d="M 1038 2947 
L 1038 2303 
Q 1397 2947 1775 2947 
Q 1947 2947 2059 2842 
Q 2172 2738 2172 2600 
Q 2172 2478 2090 2393 
Q 2009 2309 1897 2309 
Q 1788 2309 1652 2417 
Q 1516 2525 1450 2525 
Q 1394 2525 1328 2463 
Q 1188 2334 1038 2041 
L 1038 669 
Q 1038 431 1097 309 
Q 1138 225 1241 169 
Q 1344 113 1538 113 
L 1538 0 
L 72 0 
L 72 113 
Q 291 113 397 181 
Q 475 231 506 341 
Q 522 394 522 644 
L 522 1753 
Q 522 2253 501 2348 
Q 481 2444 426 2487 
Q 372 2531 291 2531 
Q 194 2531 72 2484 
L 41 2597 
L 906 2947 
L 1038 2947 
z
" transform="scale(0.015625)"/>
      <path id="TimesNewRomanPSMT-6d" d="M 1050 2338 
Q 1363 2650 1419 2697 
Q 1559 2816 1721 2881 
Q 1884 2947 2044 2947 
Q 2313 2947 2506 2790 
Q 2700 2634 2766 2338 
Q 3088 2713 3309 2830 
Q 3531 2947 3766 2947 
Q 3994 2947 4170 2830 
Q 4347 2713 4450 2447 
Q 4519 2266 4519 1878 
L 4519 647 
Q 4519 378 4559 278 
Q 4591 209 4675 161 
Q 4759 113 4950 113 
L 4950 0 
L 3538 0 
L 3538 113 
L 3597 113 
Q 3781 113 3884 184 
Q 3956 234 3988 344 
Q 4000 397 4000 647 
L 4000 1878 
Q 4000 2228 3916 2372 
Q 3794 2572 3525 2572 
Q 3359 2572 3192 2489 
Q 3025 2406 2788 2181 
L 2781 2147 
L 2788 2013 
L 2788 647 
Q 2788 353 2820 281 
Q 2853 209 2943 161 
Q 3034 113 3253 113 
L 3253 0 
L 1806 0 
L 1806 113 
Q 2044 113 2133 169 
Q 2222 225 2256 338 
Q 2272 391 2272 647 
L 2272 1878 
Q 2272 2228 2169 2381 
Q 2031 2581 1784 2581 
Q 1616 2581 1450 2491 
Q 1191 2353 1050 2181 
L 1050 647 
Q 1050 366 1089 281 
Q 1128 197 1204 155 
Q 1281 113 1516 113 
L 1516 0 
L 100 0 
L 100 113 
Q 297 113 375 155 
Q 453 197 493 289 
Q 534 381 534 647 
L 534 1741 
Q 534 2213 506 2350 
Q 484 2453 437 2492 
Q 391 2531 309 2531 
Q 222 2531 100 2484 
L 53 2597 
L 916 2947 
L 1050 2947 
L 1050 2338 
z
" transform="scale(0.015625)"/>
      <path id="TimesNewRomanPSMT-70" d="M -6 2578 
L 875 2934 
L 994 2934 
L 994 2266 
Q 1216 2644 1439 2795 
Q 1663 2947 1909 2947 
Q 2341 2947 2628 2609 
Q 2981 2197 2981 1534 
Q 2981 794 2556 309 
Q 2206 -88 1675 -88 
Q 1444 -88 1275 -22 
Q 1150 25 994 166 
L 994 -706 
Q 994 -1000 1030 -1079 
Q 1066 -1159 1155 -1206 
Q 1244 -1253 1478 -1253 
L 1478 -1369 
L -22 -1369 
L -22 -1253 
L 56 -1253 
Q 228 -1256 350 -1188 
Q 409 -1153 442 -1076 
Q 475 -1000 475 -688 
L 475 2019 
Q 475 2297 450 2372 
Q 425 2447 370 2484 
Q 316 2522 222 2522 
Q 147 2522 31 2478 
L -6 2578 
z
M 994 2081 
L 994 1013 
Q 994 666 1022 556 
Q 1066 375 1236 237 
Q 1406 100 1666 100 
Q 1978 100 2172 344 
Q 2425 663 2425 1241 
Q 2425 1897 2138 2250 
Q 1938 2494 1663 2494 
Q 1513 2494 1366 2419 
Q 1253 2363 994 2081 
z
" transform="scale(0.015625)"/>
      <path id="TimesNewRomanPSMT-73" d="M 2050 2947 
L 2050 1972 
L 1947 1972 
Q 1828 2431 1642 2597 
Q 1456 2763 1169 2763 
Q 950 2763 815 2647 
Q 681 2531 681 2391 
Q 681 2216 781 2091 
Q 878 1963 1175 1819 
L 1631 1597 
Q 2266 1288 2266 781 
Q 2266 391 1970 151 
Q 1675 -88 1309 -88 
Q 1047 -88 709 6 
Q 606 38 541 38 
Q 469 38 428 -44 
L 325 -44 
L 325 978 
L 428 978 
Q 516 541 762 319 
Q 1009 97 1316 97 
Q 1531 97 1667 223 
Q 1803 350 1803 528 
Q 1803 744 1651 891 
Q 1500 1038 1047 1263 
Q 594 1488 453 1669 
Q 313 1847 313 2119 
Q 313 2472 555 2709 
Q 797 2947 1181 2947 
Q 1350 2947 1591 2875 
Q 1750 2828 1803 2828 
Q 1853 2828 1881 2850 
Q 1909 2872 1947 2947 
L 2050 2947 
z
" transform="scale(0.015625)"/>
     </defs>
     <use xlink:href="#TimesNewRomanPSMT-43"/>
     <use xlink:href="#TimesNewRomanPSMT-31" transform="translate(66.699219 0)"/>
     <use xlink:href="#TimesNewRomanPSMT-3a" transform="translate(116.699219 0)"/>
     <use xlink:href="#TimesNewRomanPSMT-20" transform="translate(144.482422 0)"/>
     <use xlink:href="#TimesNewRomanPSMT-66" transform="translate(169.482422 0)"/>
     <use xlink:href="#TimesNewRomanPSMT-65" transform="translate(202.783203 0)"/>
     <use xlink:href="#TimesNewRomanPSMT-61" transform="translate(247.167969 0)"/>
     <use xlink:href="#TimesNewRomanPSMT-74" transform="translate(291.552734 0)"/>
     <use xlink:href="#TimesNewRomanPSMT-75" transform="translate(319.335938 0)"/>
     <use xlink:href="#TimesNewRomanPSMT-72" transform="translate(369.335938 0)"/>
     <use xlink:href="#TimesNewRomanPSMT-65" transform="translate(402.636719 0)"/>
     <use xlink:href="#TimesNewRomanPSMT-20" transform="translate(447.021484 0)"/>
     <use xlink:href="#TimesNewRomanPSMT-6d" transform="translate(472.021484 0)"/>
     <use xlink:href="#TimesNewRomanPSMT-61" transform="translate(549.804688 0)"/>
     <use xlink:href="#TimesNewRomanPSMT-70" transform="translate(594.189453 0)"/>
     <use xlink:href="#TimesNewRomanPSMT-73" transform="translate(644.189453 0)"/>
    </g>
    <!-- 6@28×28 -->
    <g transform="translate(204.303327 55.962875) scale(0.28 -0.28)">
     <defs>
      <path id="TimesNewRomanPSMT-36" d="M 2869 4325 
L 2869 4209 
Q 2456 4169 2195 4045 
Q 1934 3922 1679 3669 
Q 1425 3416 1258 3105 
Q 1091 2794 978 2366 
Q 1428 2675 1881 2675 
Q 2316 2675 2634 2325 
Q 2953 1975 2953 1425 
Q 2953 894 2631 456 
Q 2244 -75 1606 -75 
Q 1172 -75 869 213 
Q 275 772 275 1663 
Q 275 2231 503 2743 
Q 731 3256 1154 3653 
Q 1578 4050 1965 4187 
Q 2353 4325 2688 4325 
L 2869 4325 
z
M 925 2138 
Q 869 1716 869 1456 
Q 869 1156 980 804 
Q 1091 453 1309 247 
Q 1469 100 1697 100 
Q 1969 100 2183 356 
Q 2397 613 2397 1088 
Q 2397 1622 2184 2012 
Q 1972 2403 1581 2403 
Q 1463 2403 1327 2353 
Q 1191 2303 925 2138 
z
" transform="scale(0.015625)"/>
      <path id="TimesNewRomanPSMT-40" d="M 4400 2994 
L 4034 1747 
Q 3831 1047 3787 859 
Q 3744 672 3744 559 
Q 3744 459 3811 390 
Q 3878 322 3978 322 
Q 4206 322 4526 550 
Q 4847 778 5075 1290 
Q 5303 1803 5303 2359 
Q 5303 2894 5045 3347 
Q 4788 3800 4317 4042 
Q 3847 4284 3278 4284 
Q 2556 4284 1937 3901 
Q 1319 3519 958 2800 
Q 597 2081 597 1306 
Q 597 588 914 0 
Q 1231 -588 1806 -889 
Q 2381 -1191 3044 -1191 
Q 3866 -1191 4530 -750 
Q 5194 -309 5556 538 
L 5738 538 
Q 5456 -319 4715 -850 
Q 3975 -1381 3028 -1381 
Q 2284 -1381 1646 -1029 
Q 1009 -678 656 -32 
Q 303 613 303 1388 
Q 303 2213 690 2927 
Q 1078 3641 1776 4042 
Q 2475 4444 3259 4444 
Q 3906 4444 4426 4176 
Q 4947 3909 5219 3395 
Q 5491 2881 5491 2303 
Q 5491 1731 5236 1170 
Q 4981 609 4587 353 
Q 4194 97 3766 97 
Q 3528 97 3408 209 
Q 3288 322 3288 525 
Q 3288 700 3344 984 
Q 2881 425 2603 259 
Q 2325 94 2113 94 
Q 1891 94 1719 292 
Q 1547 491 1547 822 
Q 1547 1275 1842 1837 
Q 2138 2400 2625 2753 
Q 2984 3013 3269 3013 
Q 3478 3013 3617 2905 
Q 3756 2797 3806 2581 
L 3909 2925 
L 4400 2994 
z
M 3303 2866 
Q 3069 2866 2828 2619 
Q 2475 2256 2225 1641 
Q 2041 1191 2041 916 
Q 2041 719 2152 595 
Q 2263 472 2400 472 
Q 2581 472 2781 609 
Q 2981 747 3200 1033 
Q 3419 1319 3519 1606 
Q 3694 2103 3694 2416 
Q 3694 2622 3580 2744 
Q 3466 2866 3303 2866 
z
" transform="scale(0.015625)"/>
      <path id="TimesNewRomanPSMT-38" d="M 1228 2134 
Q 725 2547 579 2797 
Q 434 3047 434 3316 
Q 434 3728 753 4026 
Q 1072 4325 1600 4325 
Q 2113 4325 2425 4047 
Q 2738 3769 2738 3413 
Q 2738 3175 2569 2928 
Q 2400 2681 1866 2347 
Q 2416 1922 2594 1678 
Q 2831 1359 2831 1006 
Q 2831 559 2490 242 
Q 2150 -75 1597 -75 
Q 994 -75 656 303 
Q 388 606 388 966 
Q 388 1247 577 1523 
Q 766 1800 1228 2134 
z
M 1719 2469 
Q 2094 2806 2194 3001 
Q 2294 3197 2294 3444 
Q 2294 3772 2109 3958 
Q 1925 4144 1606 4144 
Q 1288 4144 1088 3959 
Q 888 3775 888 3528 
Q 888 3366 970 3203 
Q 1053 3041 1206 2894 
L 1719 2469 
z
M 1375 2016 
Q 1116 1797 991 1539 
Q 866 1281 866 981 
Q 866 578 1086 336 
Q 1306 94 1647 94 
Q 1984 94 2187 284 
Q 2391 475 2391 747 
Q 2391 972 2272 1150 
Q 2050 1481 1375 2016 
z
" transform="scale(0.015625)"/>
     </defs>
     <use xlink:href="#TimesNewRomanPSMT-36"/>
     <use xlink:href="#TimesNewRomanPSMT-40" transform="translate(50 0)"/>
     <use xlink:href="#TimesNewRomanPSMT-32" transform="translate(142.089844 0)"/>
     <use xlink:href="#TimesNewRomanPSMT-38" transform="translate(192.089844 0)"/>
     <use xlink:href="#TimesNewRomanPSMT-d7" transform="translate(242.089844 0)"/>
     <use xlink:href="#TimesNewRomanPSMT-32" transform="translate(298.486328 0)"/>
     <use xlink:href="#TimesNewRomanPSMT-38" transform="translate(348.486328 0)"/>
    </g>
   </g>
   <g id="text_3">
    <!-- S2: f. maps -->
    <g transform="translate(374.169232 26.6425) scale(0.28 -0.28)">
     <defs>
      <path id="TimesNewRomanPSMT-53" d="M 2934 4334 
L 2934 2869 
L 2819 2869 
Q 2763 3291 2617 3541 
Q 2472 3791 2203 3937 
Q 1934 4084 1647 4084 
Q 1322 4084 1109 3886 
Q 897 3688 897 3434 
Q 897 3241 1031 3081 
Q 1225 2847 1953 2456 
Q 2547 2138 2764 1967 
Q 2981 1797 3098 1565 
Q 3216 1334 3216 1081 
Q 3216 600 2842 251 
Q 2469 -97 1881 -97 
Q 1697 -97 1534 -69 
Q 1438 -53 1133 45 
Q 828 144 747 144 
Q 669 144 623 97 
Q 578 50 556 -97 
L 441 -97 
L 441 1356 
L 556 1356 
Q 638 900 775 673 
Q 913 447 1195 297 
Q 1478 147 1816 147 
Q 2206 147 2432 353 
Q 2659 559 2659 841 
Q 2659 997 2573 1156 
Q 2488 1316 2306 1453 
Q 2184 1547 1640 1851 
Q 1097 2156 867 2337 
Q 638 2519 519 2737 
Q 400 2956 400 3219 
Q 400 3675 750 4004 
Q 1100 4334 1641 4334 
Q 1978 4334 2356 4169 
Q 2531 4091 2603 4091 
Q 2684 4091 2736 4139 
Q 2788 4188 2819 4334 
L 2934 4334 
z
" transform="scale(0.015625)"/>
      <path id="TimesNewRomanPSMT-2e" d="M 800 606 
Q 947 606 1047 504 
Q 1147 403 1147 259 
Q 1147 116 1045 14 
Q 944 -88 800 -88 
Q 656 -88 554 14 
Q 453 116 453 259 
Q 453 406 554 506 
Q 656 606 800 606 
z
" transform="scale(0.015625)"/>
     </defs>
     <use xlink:href="#TimesNewRomanPSMT-53"/>
     <use xlink:href="#TimesNewRomanPSMT-32" transform="translate(55.615234 0)"/>
     <use xlink:href="#TimesNewRomanPSMT-3a" transform="translate(105.615234 0)"/>
     <use xlink:href="#TimesNewRomanPSMT-20" transform="translate(133.398438 0)"/>
     <use xlink:href="#TimesNewRomanPSMT-66" transform="translate(158.398438 0)"/>
     <use xlink:href="#TimesNewRomanPSMT-2e" transform="translate(191.699219 0)"/>
     <use xlink:href="#TimesNewRomanPSMT-20" transform="translate(216.699219 0)"/>
     <use xlink:href="#TimesNewRomanPSMT-6d" transform="translate(241.699219 0)"/>
     <use xlink:href="#TimesNewRomanPSMT-61" transform="translate(319.482422 0)"/>
     <use xlink:href="#TimesNewRomanPSMT-70" transform="translate(363.867188 0)"/>
     <use xlink:href="#TimesNewRomanPSMT-73" transform="translate(413.867188 0)"/>
    </g>
    <!-- 6@14×14 -->
    <g transform="translate(381.770794 55.962875) scale(0.28 -0.28)">
     <defs>
      <path id="TimesNewRomanPSMT-34" d="M 2978 1563 
L 2978 1119 
L 2409 1119 
L 2409 0 
L 1894 0 
L 1894 1119 
L 100 1119 
L 100 1519 
L 2066 4325 
L 2409 4325 
L 2409 1563 
L 2978 1563 
z
M 1894 1563 
L 1894 3666 
L 406 1563 
L 1894 1563 
z
" transform="scale(0.015625)"/>
     </defs>
     <use xlink:href="#TimesNewRomanPSMT-36"/>
     <use xlink:href="#TimesNewRomanPSMT-40" transform="translate(50 0)"/>
     <use xlink:href="#TimesNewRomanPSMT-31" transform="translate(142.089844 0)"/>
     <use xlink:href="#TimesNewRomanPSMT-34" transform="translate(192.089844 0)"/>
     <use xlink:href="#TimesNewRomanPSMT-d7" transform="translate(242.089844 0)"/>
     <use xlink:href="#TimesNewRomanPSMT-31" transform="translate(298.486328 0)"/>
     <use xlink:href="#TimesNewRomanPSMT-34" transform="translate(348.486328 0)"/>
    </g>
   </g>
   <g id="text_4">
    <!-- C3: f. maps -->
    <g transform="translate(545.646887 26.6425) scale(0.28 -0.28)">
     <use xlink:href="#TimesNewRomanPSMT-43"/>
     <use xlink:href="#TimesNewRomanPSMT-33" transform="translate(66.699219 0)"/>
     <use xlink:href="#TimesNewRomanPSMT-3a" transform="translate(116.699219 0)"/>
     <use xlink:href="#TimesNewRomanPSMT-20" transform="translate(144.482422 0)"/>
     <use xlink:href="#TimesNewRomanPSMT-66" transform="translate(169.482422 0)"/>
     <use xlink:href="#TimesNewRomanPSMT-2e" transform="translate(202.783203 0)"/>
     <use xlink:href="#TimesNewRomanPSMT-20" transform="translate(227.783203 0)"/>
     <use xlink:href="#TimesNewRomanPSMT-6d" transform="translate(252.783203 0)"/>
     <use xlink:href="#TimesNewRomanPSMT-61" transform="translate(330.566406 0)"/>
     <use xlink:href="#TimesNewRomanPSMT-70" transform="translate(374.951172 0)"/>
     <use xlink:href="#TimesNewRomanPSMT-73" transform="translate(424.951172 0)"/>
    </g>
    <!-- 16@10×10 -->
    <g transform="translate(547.801574 55.962875) scale(0.28 -0.28)">
     <defs>
      <path id="TimesNewRomanPSMT-30" d="M 231 2094 
Q 231 2819 450 3342 
Q 669 3866 1031 4122 
Q 1313 4325 1613 4325 
Q 2100 4325 2488 3828 
Q 2972 3213 2972 2159 
Q 2972 1422 2759 906 
Q 2547 391 2217 158 
Q 1888 -75 1581 -75 
Q 975 -75 572 641 
Q 231 1244 231 2094 
z
M 844 2016 
Q 844 1141 1059 588 
Q 1238 122 1591 122 
Q 1759 122 1940 273 
Q 2122 425 2216 781 
Q 2359 1319 2359 2297 
Q 2359 3022 2209 3506 
Q 2097 3866 1919 4016 
Q 1791 4119 1609 4119 
Q 1397 4119 1231 3928 
Q 1006 3669 925 3112 
Q 844 2556 844 2016 
z
" transform="scale(0.015625)"/>
     </defs>
     <use xlink:href="#TimesNewRomanPSMT-31"/>
     <use xlink:href="#TimesNewRomanPSMT-36" transform="translate(50 0)"/>
     <use xlink:href="#TimesNewRomanPSMT-40" transform="translate(100 0)"/>
     <use xlink:href="#TimesNewRomanPSMT-31" transform="translate(192.089844 0)"/>
     <use xlink:href="#TimesNewRomanPSMT-30" transform="translate(242.089844 0)"/>
     <use xlink:href="#TimesNewRomanPSMT-d7" transform="translate(292.089844 0)"/>
     <use xlink:href="#TimesNewRomanPSMT-31" transform="translate(348.486328 0)"/>
     <use xlink:href="#TimesNewRomanPSMT-30" transform="translate(398.486328 0)"/>
    </g>
   </g>
   <g id="text_5">
    <!-- S4: f. maps -->
    <g transform="translate(731.322508 26.6425) scale(0.28 -0.28)">
     <use xlink:href="#TimesNewRomanPSMT-53"/>
     <use xlink:href="#TimesNewRomanPSMT-34" transform="translate(55.615234 0)"/>
     <use xlink:href="#TimesNewRomanPSMT-3a" transform="translate(105.615234 0)"/>
     <use xlink:href="#TimesNewRomanPSMT-20" transform="translate(133.398438 0)"/>
     <use xlink:href="#TimesNewRomanPSMT-66" transform="translate(158.398438 0)"/>
     <use xlink:href="#TimesNewRomanPSMT-2e" transform="translate(191.699219 0)"/>
     <use xlink:href="#TimesNewRomanPSMT-20" transform="translate(216.699219 0)"/>
     <use xlink:href="#TimesNewRomanPSMT-6d" transform="translate(241.699219 0)"/>
     <use xlink:href="#TimesNewRomanPSMT-61" transform="translate(319.482422 0)"/>
     <use xlink:href="#TimesNewRomanPSMT-70" transform="translate(363.867188 0)"/>
     <use xlink:href="#TimesNewRomanPSMT-73" transform="translate(413.867188 0)"/>
    </g>
    <!-- 16@5×5 -->
    <g transform="translate(745.924071 55.962875) scale(0.28 -0.28)">
     <defs>
      <path id="TimesNewRomanPSMT-35" d="M 2778 4238 
L 2534 3706 
L 1259 3706 
L 981 3138 
Q 1809 3016 2294 2522 
Q 2709 2097 2709 1522 
Q 2709 1188 2573 903 
Q 2438 619 2231 419 
Q 2025 219 1772 97 
Q 1413 -75 1034 -75 
Q 653 -75 479 54 
Q 306 184 306 341 
Q 306 428 378 495 
Q 450 563 559 563 
Q 641 563 702 538 
Q 763 513 909 409 
Q 1144 247 1384 247 
Q 1750 247 2026 523 
Q 2303 800 2303 1197 
Q 2303 1581 2056 1914 
Q 1809 2247 1375 2428 
Q 1034 2569 447 2591 
L 1259 4238 
L 2778 4238 
z
" transform="scale(0.015625)"/>
     </defs>
     <use xlink:href="#TimesNewRomanPSMT-31"/>
     <use xlink:href="#TimesNewRomanPSMT-36" transform="translate(50 0)"/>
     <use xlink:href="#TimesNewRomanPSMT-40" transform="translate(100 0)"/>
     <use xlink:href="#TimesNewRomanPSMT-35" transform="translate(192.089844 0)"/>
     <use xlink:href="#TimesNewRomanPSMT-d7" transform="translate(242.089844 0)"/>
     <use xlink:href="#TimesNewRomanPSMT-35" transform="translate(298.486328 0)"/>
    </g>
   </g>
   <g id="text_6">
    <!-- C5: layer -->
    <g transform="translate(921.157453 49.022076) scale(0.28 -0.28)">
     <defs>
      <path id="TimesNewRomanPSMT-6c" d="M 1184 4444 
L 1184 647 
Q 1184 378 1223 290 
Q 1263 203 1344 158 
Q 1425 113 1647 113 
L 1647 0 
L 244 0 
L 244 113 
Q 441 113 512 153 
Q 584 194 625 287 
Q 666 381 666 647 
L 666 3247 
Q 666 3731 644 3842 
Q 622 3953 573 3993 
Q 525 4034 450 4034 
Q 369 4034 244 3984 
L 191 4094 
L 1044 4444 
L 1184 4444 
z
" transform="scale(0.015625)"/>
      <path id="TimesNewRomanPSMT-79" d="M 38 2863 
L 1372 2863 
L 1372 2747 
L 1306 2747 
Q 1166 2747 1095 2686 
Q 1025 2625 1025 2534 
Q 1025 2413 1128 2197 
L 1825 753 
L 2466 2334 
Q 2519 2463 2519 2588 
Q 2519 2644 2497 2672 
Q 2472 2706 2419 2726 
Q 2366 2747 2231 2747 
L 2231 2863 
L 3163 2863 
L 3163 2747 
Q 3047 2734 2984 2696 
Q 2922 2659 2847 2556 
Q 2819 2513 2741 2316 
L 1575 -541 
Q 1406 -956 1132 -1168 
Q 859 -1381 606 -1381 
Q 422 -1381 303 -1275 
Q 184 -1169 184 -1031 
Q 184 -900 270 -820 
Q 356 -741 506 -741 
Q 609 -741 788 -809 
Q 913 -856 944 -856 
Q 1038 -856 1148 -759 
Q 1259 -663 1372 -384 
L 1575 113 
L 547 2272 
Q 500 2369 397 2513 
Q 319 2622 269 2659 
Q 197 2709 38 2747 
L 38 2863 
z
" transform="scale(0.015625)"/>
     </defs>
     <use xlink:href="#TimesNewRomanPSMT-43"/>
     <use xlink:href="#TimesNewRomanPSMT-35" transform="translate(66.699219 0)"/>
     <use xlink:href="#TimesNewRomanPSMT-3a" transform="translate(116.699219 0)"/>
     <use xlink:href="#TimesNewRomanPSMT-20" transform="translate(144.482422 0)"/>
     <use xlink:href="#TimesNewRomanPSMT-6c" transform="translate(169.482422 0)"/>
     <use xlink:href="#TimesNewRomanPSMT-61" transform="translate(197.265625 0)"/>
     <use xlink:href="#TimesNewRomanPSMT-79" transform="translate(241.650391 0)"/>
     <use xlink:href="#TimesNewRomanPSMT-65" transform="translate(291.650391 0)"/>
     <use xlink:href="#TimesNewRomanPSMT-72" transform="translate(336.035156 0)"/>
    </g>
    <!-- 120 -->
    <g transform="translate(921.157453 78.394951) scale(0.28 -0.28)">
     <use xlink:href="#TimesNewRomanPSMT-31"/>
     <use xlink:href="#TimesNewRomanPSMT-32" transform="translate(50 0)"/>
     <use xlink:href="#TimesNewRomanPSMT-30" transform="translate(100 0)"/>
    </g>
   </g>
   <g id="text_7">
    <!-- F6: layer -->
    <g transform="translate(1076.441487 75.470667) scale(0.28 -0.28)">
     <defs>
      <path id="TimesNewRomanPSMT-46" d="M 1309 4006 
L 1309 2341 
L 2081 2341 
Q 2347 2341 2470 2458 
Q 2594 2575 2634 2922 
L 2750 2922 
L 2750 1488 
L 2634 1488 
Q 2631 1734 2570 1850 
Q 2509 1966 2401 2023 
Q 2294 2081 2081 2081 
L 1309 2081 
L 1309 750 
Q 1309 428 1350 325 
Q 1381 247 1481 191 
Q 1619 116 1769 116 
L 1922 116 
L 1922 0 
L 103 0 
L 103 116 
L 253 116 
Q 516 116 634 269 
Q 709 369 709 750 
L 709 3488 
Q 709 3809 669 3913 
Q 638 3991 541 4047 
Q 406 4122 253 4122 
L 103 4122 
L 103 4238 
L 3256 4238 
L 3297 3306 
L 3188 3306 
Q 3106 3603 2998 3742 
Q 2891 3881 2733 3943 
Q 2575 4006 2244 4006 
L 1309 4006 
z
" transform="scale(0.015625)"/>
     </defs>
     <use xlink:href="#TimesNewRomanPSMT-46"/>
     <use xlink:href="#TimesNewRomanPSMT-36" transform="translate(55.615234 0)"/>
     <use xlink:href="#TimesNewRomanPSMT-3a" transform="translate(105.615234 0)"/>
     <use xlink:href="#TimesNewRomanPSMT-20" transform="translate(133.398438 0)"/>
     <use xlink:href="#TimesNewRomanPSMT-6c" transform="translate(158.398438 0)"/>
     <use xlink:href="#TimesNewRomanPSMT-61" transform="translate(186.181641 0)"/>
     <use xlink:href="#TimesNewRomanPSMT-79" transform="translate(230.566406 0)"/>
     <use xlink:href="#TimesNewRomanPSMT-65" transform="translate(280.566406 0)"/>
     <use xlink:href="#TimesNewRomanPSMT-72" transform="translate(324.951172 0)"/>
    </g>
    <!-- 84 -->
    <g transform="translate(1076.441487 104.843542) scale(0.28 -0.28)">
     <use xlink:href="#TimesNewRomanPSMT-38"/>
     <use xlink:href="#TimesNewRomanPSMT-34" transform="translate(50 0)"/>
    </g>
   </g>
   <g id="text_8">
    <!-- OUTPUT -->
    <g transform="translate(1231.72552 101.971757) scale(0.28 -0.28)">
     <defs>
      <path id="TimesNewRomanPSMT-4f" d="M 2341 4334 
Q 3166 4334 3770 3707 
Q 4375 3081 4375 2144 
Q 4375 1178 3765 540 
Q 3156 -97 2291 -97 
Q 1416 -97 820 525 
Q 225 1147 225 2134 
Q 225 3144 913 3781 
Q 1509 4334 2341 4334 
z
M 2281 4106 
Q 1713 4106 1369 3684 
Q 941 3159 941 2147 
Q 941 1109 1384 550 
Q 1725 125 2284 125 
Q 2881 125 3270 590 
Q 3659 1056 3659 2059 
Q 3659 3147 3231 3681 
Q 2888 4106 2281 4106 
z
" transform="scale(0.015625)"/>
     </defs>
     <use xlink:href="#TimesNewRomanPSMT-4f"/>
     <use xlink:href="#TimesNewRomanPSMT-55" transform="translate(72.216797 0)"/>
     <use xlink:href="#TimesNewRomanPSMT-54" transform="translate(144.433594 0)"/>
     <use xlink:href="#TimesNewRomanPSMT-50" transform="translate(205.517578 0)"/>
     <use xlink:href="#TimesNewRomanPSMT-55" transform="translate(261.132812 0)"/>
     <use xlink:href="#TimesNewRomanPSMT-54" transform="translate(333.349609 0)"/>
    </g>
    <!-- 10 -->
    <g transform="translate(1231.72552 131.292132) scale(0.28 -0.28)">
     <use xlink:href="#TimesNewRomanPSMT-31"/>
     <use xlink:href="#TimesNewRomanPSMT-30" transform="translate(50 0)"/>
    </g>
   </g>
   <g id="text_9">
    <!-- Convolutions -->
    <g transform="translate(122.521902 318.67076) scale(0.28 -0.28)">
     <defs>
      <path id="TimesNewRomanPSMT-6f" d="M 1600 2947 
Q 2250 2947 2644 2453 
Q 2978 2031 2978 1484 
Q 2978 1100 2793 706 
Q 2609 313 2286 112 
Q 1963 -88 1566 -88 
Q 919 -88 538 428 
Q 216 863 216 1403 
Q 216 1797 411 2186 
Q 606 2575 925 2761 
Q 1244 2947 1600 2947 
z
M 1503 2744 
Q 1338 2744 1170 2645 
Q 1003 2547 900 2300 
Q 797 2053 797 1666 
Q 797 1041 1045 587 
Q 1294 134 1700 134 
Q 2003 134 2200 384 
Q 2397 634 2397 1244 
Q 2397 2006 2069 2444 
Q 1847 2744 1503 2744 
z
" transform="scale(0.015625)"/>
      <path id="TimesNewRomanPSMT-6e" d="M 1034 2341 
Q 1538 2947 1994 2947 
Q 2228 2947 2397 2830 
Q 2566 2713 2666 2444 
Q 2734 2256 2734 1869 
L 2734 647 
Q 2734 375 2778 278 
Q 2813 200 2889 156 
Q 2966 113 3172 113 
L 3172 0 
L 1756 0 
L 1756 113 
L 1816 113 
Q 2016 113 2095 173 
Q 2175 234 2206 353 
Q 2219 400 2219 647 
L 2219 1819 
Q 2219 2209 2117 2386 
Q 2016 2563 1775 2563 
Q 1403 2563 1034 2156 
L 1034 647 
Q 1034 356 1069 288 
Q 1113 197 1189 155 
Q 1266 113 1500 113 
L 1500 0 
L 84 0 
L 84 113 
L 147 113 
Q 366 113 442 223 
Q 519 334 519 647 
L 519 1709 
Q 519 2225 495 2337 
Q 472 2450 423 2490 
Q 375 2531 294 2531 
Q 206 2531 84 2484 
L 38 2597 
L 900 2947 
L 1034 2947 
L 1034 2341 
z
" transform="scale(0.015625)"/>
      <path id="TimesNewRomanPSMT-76" d="M 53 2863 
L 1400 2863 
L 1400 2747 
L 1313 2747 
Q 1191 2747 1127 2687 
Q 1063 2628 1063 2528 
Q 1063 2419 1128 2269 
L 1794 688 
L 2463 2328 
Q 2534 2503 2534 2594 
Q 2534 2638 2509 2666 
Q 2475 2713 2422 2730 
Q 2369 2747 2206 2747 
L 2206 2863 
L 3141 2863 
L 3141 2747 
Q 2978 2734 2916 2681 
Q 2806 2588 2719 2369 
L 1703 -88 
L 1575 -88 
L 553 2328 
Q 484 2497 421 2570 
Q 359 2644 263 2694 
Q 209 2722 53 2747 
L 53 2863 
z
" transform="scale(0.015625)"/>
      <path id="TimesNewRomanPSMT-69" d="M 928 4444 
Q 1059 4444 1151 4351 
Q 1244 4259 1244 4128 
Q 1244 3997 1151 3903 
Q 1059 3809 928 3809 
Q 797 3809 703 3903 
Q 609 3997 609 4128 
Q 609 4259 701 4351 
Q 794 4444 928 4444 
z
M 1188 2947 
L 1188 647 
Q 1188 378 1227 289 
Q 1266 200 1342 156 
Q 1419 113 1622 113 
L 1622 0 
L 231 0 
L 231 113 
Q 441 113 512 153 
Q 584 194 626 287 
Q 669 381 669 647 
L 669 1750 
Q 669 2216 641 2353 
Q 619 2453 572 2492 
Q 525 2531 444 2531 
Q 356 2531 231 2484 
L 188 2597 
L 1050 2947 
L 1188 2947 
z
" transform="scale(0.015625)"/>
     </defs>
     <use xlink:href="#TimesNewRomanPSMT-43"/>
     <use xlink:href="#TimesNewRomanPSMT-6f" transform="translate(66.699219 0)"/>
     <use xlink:href="#TimesNewRomanPSMT-6e" transform="translate(116.699219 0)"/>
     <use xlink:href="#TimesNewRomanPSMT-76" transform="translate(166.699219 0)"/>
     <use xlink:href="#TimesNewRomanPSMT-6f" transform="translate(216.699219 0)"/>
     <use xlink:href="#TimesNewRomanPSMT-6c" transform="translate(266.699219 0)"/>
     <use xlink:href="#TimesNewRomanPSMT-75" transform="translate(294.482422 0)"/>
     <use xlink:href="#TimesNewRomanPSMT-74" transform="translate(344.482422 0)"/>
     <use xlink:href="#TimesNewRomanPSMT-69" transform="translate(372.265625 0)"/>
     <use xlink:href="#TimesNewRomanPSMT-6f" transform="translate(400.048828 0)"/>
     <use xlink:href="#TimesNewRomanPSMT-6e" transform="translate(450.048828 0)"/>
     <use xlink:href="#TimesNewRomanPSMT-73" transform="translate(500.048828 0)"/>
    </g>
   </g>
   <g id="text_10">
    <!-- Subsampling -->
    <g transform="translate(311.201179 318.67076) scale(0.28 -0.28)">
     <defs>
      <path id="TimesNewRomanPSMT-62" d="M 984 2369 
Q 1400 2947 1881 2947 
Q 2322 2947 2650 2570 
Q 2978 2194 2978 1541 
Q 2978 778 2472 313 
Q 2038 -88 1503 -88 
Q 1253 -88 995 3 
Q 738 94 469 275 
L 469 3241 
Q 469 3728 445 3840 
Q 422 3953 372 3993 
Q 322 4034 247 4034 
Q 159 4034 28 3984 
L -16 4094 
L 844 4444 
L 984 4444 
L 984 2369 
z
M 984 2169 
L 984 456 
Q 1144 300 1314 220 
Q 1484 141 1663 141 
Q 1947 141 2192 453 
Q 2438 766 2438 1363 
Q 2438 1913 2192 2208 
Q 1947 2503 1634 2503 
Q 1469 2503 1303 2419 
Q 1178 2356 984 2169 
z
" transform="scale(0.015625)"/>
      <path id="TimesNewRomanPSMT-67" d="M 966 1044 
Q 703 1172 562 1401 
Q 422 1631 422 1909 
Q 422 2334 742 2640 
Q 1063 2947 1563 2947 
Q 1972 2947 2272 2747 
L 2878 2747 
Q 3013 2747 3034 2739 
Q 3056 2731 3066 2713 
Q 3084 2684 3084 2613 
Q 3084 2531 3069 2500 
Q 3059 2484 3036 2475 
Q 3013 2466 2878 2466 
L 2506 2466 
Q 2681 2241 2681 1891 
Q 2681 1491 2375 1206 
Q 2069 922 1553 922 
Q 1341 922 1119 984 
Q 981 866 932 777 
Q 884 688 884 625 
Q 884 572 936 522 
Q 988 472 1138 450 
Q 1225 438 1575 428 
Q 2219 413 2409 384 
Q 2700 344 2873 169 
Q 3047 -6 3047 -263 
Q 3047 -616 2716 -925 
Q 2228 -1381 1444 -1381 
Q 841 -1381 425 -1109 
Q 191 -953 191 -784 
Q 191 -709 225 -634 
Q 278 -519 444 -313 
Q 466 -284 763 25 
Q 600 122 533 198 
Q 466 275 466 372 
Q 466 481 555 628 
Q 644 775 966 1044 
z
M 1509 2797 
Q 1278 2797 1122 2612 
Q 966 2428 966 2047 
Q 966 1553 1178 1281 
Q 1341 1075 1591 1075 
Q 1828 1075 1981 1253 
Q 2134 1431 2134 1813 
Q 2134 2309 1919 2591 
Q 1759 2797 1509 2797 
z
M 934 0 
Q 788 -159 713 -296 
Q 638 -434 638 -550 
Q 638 -700 819 -813 
Q 1131 -1006 1722 -1006 
Q 2284 -1006 2551 -807 
Q 2819 -609 2819 -384 
Q 2819 -222 2659 -153 
Q 2497 -84 2016 -72 
Q 1313 -53 934 0 
z
" transform="scale(0.015625)"/>
     </defs>
     <use xlink:href="#TimesNewRomanPSMT-53"/>
     <use xlink:href="#TimesNewRomanPSMT-75" transform="translate(55.615234 0)"/>
     <use xlink:href="#TimesNewRomanPSMT-62" transform="translate(105.615234 0)"/>
     <use xlink:href="#TimesNewRomanPSMT-73" transform="translate(155.615234 0)"/>
     <use xlink:href="#TimesNewRomanPSMT-61" transform="translate(194.53125 0)"/>
     <use xlink:href="#TimesNewRomanPSMT-6d" transform="translate(238.916016 0)"/>
     <use xlink:href="#TimesNewRomanPSMT-70" transform="translate(316.699219 0)"/>
     <use xlink:href="#TimesNewRomanPSMT-6c" transform="translate(366.699219 0)"/>
     <use xlink:href="#TimesNewRomanPSMT-69" transform="translate(394.482422 0)"/>
     <use xlink:href="#TimesNewRomanPSMT-6e" transform="translate(422.265625 0)"/>
     <use xlink:href="#TimesNewRomanPSMT-67" transform="translate(472.265625 0)"/>
    </g>
   </g>
   <g id="text_11">
    <!-- Convolutions -->
    <g transform="translate(486.330208 318.67076) scale(0.28 -0.28)">
     <use xlink:href="#TimesNewRomanPSMT-43"/>
     <use xlink:href="#TimesNewRomanPSMT-6f" transform="translate(66.699219 0)"/>
     <use xlink:href="#TimesNewRomanPSMT-6e" transform="translate(116.699219 0)"/>
     <use xlink:href="#TimesNewRomanPSMT-76" transform="translate(166.699219 0)"/>
     <use xlink:href="#TimesNewRomanPSMT-6f" transform="translate(216.699219 0)"/>
     <use xlink:href="#TimesNewRomanPSMT-6c" transform="translate(266.699219 0)"/>
     <use xlink:href="#TimesNewRomanPSMT-75" transform="translate(294.482422 0)"/>
     <use xlink:href="#TimesNewRomanPSMT-74" transform="translate(344.482422 0)"/>
     <use xlink:href="#TimesNewRomanPSMT-69" transform="translate(372.265625 0)"/>
     <use xlink:href="#TimesNewRomanPSMT-6f" transform="translate(400.048828 0)"/>
     <use xlink:href="#TimesNewRomanPSMT-6e" transform="translate(450.048828 0)"/>
     <use xlink:href="#TimesNewRomanPSMT-73" transform="translate(500.048828 0)"/>
    </g>
   </g>
   <g id="text_12">
    <!-- Subsampling -->
    <g transform="translate(678.891587 318.67076) scale(0.28 -0.28)">
     <use xlink:href="#TimesNewRomanPSMT-53"/>
     <use xlink:href="#TimesNewRomanPSMT-75" transform="translate(55.615234 0)"/>
     <use xlink:href="#TimesNewRomanPSMT-62" transform="translate(105.615234 0)"/>
     <use xlink:href="#TimesNewRomanPSMT-73" transform="translate(155.615234 0)"/>
     <use xlink:href="#TimesNewRomanPSMT-61" transform="translate(194.53125 0)"/>
     <use xlink:href="#TimesNewRomanPSMT-6d" transform="translate(238.916016 0)"/>
     <use xlink:href="#TimesNewRomanPSMT-70" transform="translate(316.699219 0)"/>
     <use xlink:href="#TimesNewRomanPSMT-6c" transform="translate(366.699219 0)"/>
     <use xlink:href="#TimesNewRomanPSMT-69" transform="translate(394.482422 0)"/>
     <use xlink:href="#TimesNewRomanPSMT-6e" transform="translate(422.265625 0)"/>
     <use xlink:href="#TimesNewRomanPSMT-67" transform="translate(472.265625 0)"/>
    </g>
   </g>
   <g id="text_13">
    <!-- Full -->
    <g transform="translate(869.200342 318.67076) scale(0.28 -0.28)">
     <use xlink:href="#TimesNewRomanPSMT-46"/>
     <use xlink:href="#TimesNewRomanPSMT-75" transform="translate(55.615234 0)"/>
     <use xlink:href="#TimesNewRomanPSMT-6c" transform="translate(105.615234 0)"/>
     <use xlink:href="#TimesNewRomanPSMT-6c" transform="translate(133.398438 0)"/>
    </g>
    <!-- connection -->
    <g transform="translate(830.341592 347.991135) scale(0.28 -0.28)">
     <defs>
      <path id="TimesNewRomanPSMT-63" d="M 2631 1088 
Q 2516 522 2178 217 
Q 1841 -88 1431 -88 
Q 944 -88 581 321 
Q 219 731 219 1428 
Q 219 2103 620 2525 
Q 1022 2947 1584 2947 
Q 2006 2947 2278 2723 
Q 2550 2500 2550 2259 
Q 2550 2141 2473 2067 
Q 2397 1994 2259 1994 
Q 2075 1994 1981 2113 
Q 1928 2178 1911 2362 
Q 1894 2547 1784 2644 
Q 1675 2738 1481 2738 
Q 1169 2738 978 2506 
Q 725 2200 725 1697 
Q 725 1184 976 792 
Q 1228 400 1656 400 
Q 1963 400 2206 609 
Q 2378 753 2541 1131 
L 2631 1088 
z
" transform="scale(0.015625)"/>
     </defs>
     <use xlink:href="#TimesNewRomanPSMT-63"/>
     <use xlink:href="#TimesNewRomanPSMT-6f" transform="translate(44.384766 0)"/>
     <use xlink:href="#TimesNewRomanPSMT-6e" transform="translate(94.384766 0)"/>
     <use xlink:href="#TimesNewRomanPSMT-6e" transform="translate(144.384766 0)"/>
     <use xlink:href="#TimesNewRomanPSMT-65" transform="translate(194.384766 0)"/>
     <use xlink:href="#TimesNewRomanPSMT-63" transform="translate(238.769531 0)"/>
     <use xlink:href="#TimesNewRomanPSMT-74" transform="translate(283.154297 0)"/>
     <use xlink:href="#TimesNewRomanPSMT-69" transform="translate(310.9375 0)"/>
     <use xlink:href="#TimesNewRomanPSMT-6f" transform="translate(338.720703 0)"/>
     <use xlink:href="#TimesNewRomanPSMT-6e" transform="translate(388.720703 0)"/>
    </g>
   </g>
   <g id="text_14">
    <!-- Full -->
    <g transform="translate(1002.855527 318.67076) scale(0.28 -0.28)">
     <use xlink:href="#TimesNewRomanPSMT-46"/>
     <use xlink:href="#TimesNewRomanPSMT-75" transform="translate(55.615234 0)"/>
     <use xlink:href="#TimesNewRomanPSMT-6c" transform="translate(105.615234 0)"/>
     <use xlink:href="#TimesNewRomanPSMT-6c" transform="translate(133.398438 0)"/>
    </g>
    <!-- connection -->
    <g transform="translate(963.996778 347.991135) scale(0.28 -0.28)">
     <use xlink:href="#TimesNewRomanPSMT-63"/>
     <use xlink:href="#TimesNewRomanPSMT-6f" transform="translate(44.384766 0)"/>
     <use xlink:href="#TimesNewRomanPSMT-6e" transform="translate(94.384766 0)"/>
     <use xlink:href="#TimesNewRomanPSMT-6e" transform="translate(144.384766 0)"/>
     <use xlink:href="#TimesNewRomanPSMT-65" transform="translate(194.384766 0)"/>
     <use xlink:href="#TimesNewRomanPSMT-63" transform="translate(238.769531 0)"/>
     <use xlink:href="#TimesNewRomanPSMT-74" transform="translate(283.154297 0)"/>
     <use xlink:href="#TimesNewRomanPSMT-69" transform="translate(310.9375 0)"/>
     <use xlink:href="#TimesNewRomanPSMT-6f" transform="translate(338.720703 0)"/>
     <use xlink:href="#TimesNewRomanPSMT-6e" transform="translate(388.720703 0)"/>
    </g>
   </g>
   <g id="text_15">
    <!-- Gaussian -->
    <g transform="translate(1129.376123 318.67076) scale(0.28 -0.28)">
     <defs>
      <path id="TimesNewRomanPSMT-47" d="M 3928 4334 
L 4038 2997 
L 3928 2997 
Q 3763 3497 3500 3750 
Q 3122 4116 2528 4116 
Q 1719 4116 1297 3475 
Q 944 2934 944 2188 
Q 944 1581 1178 1081 
Q 1413 581 1792 348 
Q 2172 116 2572 116 
Q 2806 116 3025 175 
Q 3244 234 3447 350 
L 3447 1575 
Q 3447 1894 3398 1992 
Q 3350 2091 3248 2142 
Q 3147 2194 2891 2194 
L 2891 2313 
L 4531 2313 
L 4531 2194 
L 4453 2194 
Q 4209 2194 4119 2031 
Q 4056 1916 4056 1575 
L 4056 278 
Q 3697 84 3347 -6 
Q 2997 -97 2569 -97 
Q 1341 -97 703 691 
Q 225 1281 225 2053 
Q 225 2613 494 3125 
Q 813 3734 1369 4063 
Q 1834 4334 2469 4334 
Q 2700 4334 2889 4296 
Q 3078 4259 3425 4131 
Q 3600 4066 3659 4066 
Q 3719 4066 3761 4120 
Q 3803 4175 3813 4334 
L 3928 4334 
z
" transform="scale(0.015625)"/>
     </defs>
     <use xlink:href="#TimesNewRomanPSMT-47"/>
     <use xlink:href="#TimesNewRomanPSMT-61" transform="translate(72.216797 0)"/>
     <use xlink:href="#TimesNewRomanPSMT-75" transform="translate(116.601562 0)"/>
     <use xlink:href="#TimesNewRomanPSMT-73" transform="translate(166.601562 0)"/>
     <use xlink:href="#TimesNewRomanPSMT-73" transform="translate(205.517578 0)"/>
     <use xlink:href="#TimesNewRomanPSMT-69" transform="translate(244.433594 0)"/>
     <use xlink:href="#TimesNewRomanPSMT-61" transform="translate(272.216797 0)"/>
     <use xlink:href="#TimesNewRomanPSMT-6e" transform="translate(316.601562 0)"/>
    </g>
    <!-- connections -->
    <g transform="translate(1113.831748 347.991135) scale(0.28 -0.28)">
     <use xlink:href="#TimesNewRomanPSMT-63"/>
     <use xlink:href="#TimesNewRomanPSMT-6f" transform="translate(44.384766 0)"/>
     <use xlink:href="#TimesNewRomanPSMT-6e" transform="translate(94.384766 0)"/>
     <use xlink:href="#TimesNewRomanPSMT-6e" transform="translate(144.384766 0)"/>
     <use xlink:href="#TimesNewRomanPSMT-65" transform="translate(194.384766 0)"/>
     <use xlink:href="#TimesNewRomanPSMT-63" transform="translate(238.769531 0)"/>
     <use xlink:href="#TimesNewRomanPSMT-74" transform="translate(283.154297 0)"/>
     <use xlink:href="#TimesNewRomanPSMT-69" transform="translate(310.9375 0)"/>
     <use xlink:href="#TimesNewRomanPSMT-6f" transform="translate(338.720703 0)"/>
     <use xlink:href="#TimesNewRomanPSMT-6e" transform="translate(388.720703 0)"/>
     <use xlink:href="#TimesNewRomanPSMT-73" transform="translate(438.720703 0)"/>
    </g>
   </g>
  </g>
 </g>
 <defs>
  <clipPath id="p1eeae9008d">
   <rect x="7.2" y="35.55616" width="1331.006" height="292.969"/>
  </clipPath>
 </defs>
</svg>
